STARTFONT 2.1
FONT -Sun-Screen-Medium-R-Normal--6-60-72-72-M-40-SUN-FONTSPECIFIC
SIZE 6 72 72
FONTBOUNDINGBOX 4 7 0 -2

STARTPROPERTIES 21
FONTNAME_REGISTRY ""
FOUNDRY "Sun"
FAMILY_NAME "Screen"
WEIGHT_NAME "Medium"
SLANT "R"
SETWIDTH_NAME "Normal"
ADD_STYLE_NAME ""
PIXEL_SIZE 6
POINT_SIZE 60
RESOLUTION_X 72
RESOLUTION_Y 72
SPACING "M"
AVERAGE_WIDTH 40
CHARSET_REGISTRY "SUN"
CHARSET_ENCODING "FONTSPECIFIC"
WEIGHT 10
X_HEIGHT 0
QUAD_WIDTH 4
DEFAULT_CHAR 32
FONT_DESCENT 2
FONT_ASCENT 5
ENDPROPERTIES

CHARS 95

STARTCHAR <unknown>
ENCODING 32
SWIDTH 42 0
DWIDTH 4 0
BBX 4 7 0 -2
BITMAP
00
00
00
00
00
00
00
ENDCHAR

STARTCHAR <unknown>
ENCODING 33
SWIDTH 42 0
DWIDTH 4 0
BBX 4 7 0 -2
BITMAP
40
40
40
00
40
00
00
ENDCHAR

STARTCHAR <unknown>
ENCODING 34
SWIDTH 42 0
DWIDTH 4 0
BBX 4 7 0 -2
BITMAP
A0
A0
00
00
00
00
00
ENDCHAR

STARTCHAR <unknown>
ENCODING 35
SWIDTH 42 0
DWIDTH 4 0
BBX 4 7 0 -2
BITMAP
A0
E0
A0
E0
A0
00
00
ENDCHAR

STARTCHAR <unknown>
ENCODING 36
SWIDTH 42 0
DWIDTH 4 0
BBX 4 7 0 -2
BITMAP
40
E0
C0
60
E0
40
00
ENDCHAR

STARTCHAR <unknown>
ENCODING 37
SWIDTH 42 0
DWIDTH 4 0
BBX 4 7 0 -2
BITMAP
20
C0
C0
60
60
80
00
ENDCHAR

STARTCHAR <unknown>
ENCODING 38
SWIDTH 42 0
DWIDTH 4 0
BBX 4 7 0 -2
BITMAP
40
A0
40
A0
E0
00
00
ENDCHAR

STARTCHAR <unknown>
ENCODING 39
SWIDTH 42 0
DWIDTH 4 0
BBX 4 7 0 -2
BITMAP
40
80
00
00
00
00
00
ENDCHAR

STARTCHAR <unknown>
ENCODING 40
SWIDTH 42 0
DWIDTH 4 0
BBX 4 7 0 -2
BITMAP
40
80
80
80
40
00
00
ENDCHAR

STARTCHAR <unknown>
ENCODING 41
SWIDTH 42 0
DWIDTH 4 0
BBX 4 7 0 -2
BITMAP
40
20
20
20
40
00
00
ENDCHAR

STARTCHAR <unknown>
ENCODING 42
SWIDTH 42 0
DWIDTH 4 0
BBX 4 7 0 -2
BITMAP
40
E0
E0
E0
40
00
00
ENDCHAR

STARTCHAR <unknown>
ENCODING 43
SWIDTH 42 0
DWIDTH 4 0
BBX 4 7 0 -2
BITMAP
00
00
40
E0
40
00
00
ENDCHAR

STARTCHAR <unknown>
ENCODING 44
SWIDTH 42 0
DWIDTH 4 0
BBX 4 7 0 -2
BITMAP
00
00
00
00
40
80
00
ENDCHAR

STARTCHAR <unknown>
ENCODING 45
SWIDTH 42 0
DWIDTH 4 0
BBX 4 7 0 -2
BITMAP
00
00
00
E0
00
00
00
ENDCHAR

STARTCHAR <unknown>
ENCODING 46
SWIDTH 42 0
DWIDTH 4 0
BBX 4 7 0 -2
BITMAP
00
00
00
00
40
00
00
ENDCHAR

STARTCHAR <unknown>
ENCODING 47
SWIDTH 42 0
DWIDTH 4 0
BBX 4 7 0 -2
BITMAP
20
60
40
C0
80
00
00
ENDCHAR

STARTCHAR <unknown>
ENCODING 48
SWIDTH 42 0
DWIDTH 4 0
BBX 4 7 0 -2
BITMAP
40
A0
A0
A0
40
00
00
ENDCHAR

STARTCHAR <unknown>
ENCODING 49
SWIDTH 42 0
DWIDTH 4 0
BBX 4 7 0 -2
BITMAP
20
60
20
20
20
00
00
ENDCHAR

STARTCHAR <unknown>
ENCODING 50
SWIDTH 42 0
DWIDTH 4 0
BBX 4 7 0 -2
BITMAP
40
A0
20
40
E0
00
00
ENDCHAR

STARTCHAR <unknown>
ENCODING 51
SWIDTH 42 0
DWIDTH 4 0
BBX 4 7 0 -2
BITMAP
C0
20
40
20
C0
00
00
ENDCHAR

STARTCHAR <unknown>
ENCODING 52
SWIDTH 42 0
DWIDTH 4 0
BBX 4 7 0 -2
BITMAP
20
60
A0
E0
20
00
00
ENDCHAR

STARTCHAR <unknown>
ENCODING 53
SWIDTH 42 0
DWIDTH 4 0
BBX 4 7 0 -2
BITMAP
E0
80
C0
20
C0
00
00
ENDCHAR

STARTCHAR <unknown>
ENCODING 54
SWIDTH 42 0
DWIDTH 4 0
BBX 4 7 0 -2
BITMAP
80
80
E0
A0
E0
00
00
ENDCHAR

STARTCHAR <unknown>
ENCODING 55
SWIDTH 42 0
DWIDTH 4 0
BBX 4 7 0 -2
BITMAP
E0
20
40
40
40
00
00
ENDCHAR

STARTCHAR <unknown>
ENCODING 56
SWIDTH 42 0
DWIDTH 4 0
BBX 4 7 0 -2
BITMAP
E0
A0
E0
A0
E0
00
00
ENDCHAR

STARTCHAR <unknown>
ENCODING 57
SWIDTH 42 0
DWIDTH 4 0
BBX 4 7 0 -2
BITMAP
E0
A0
E0
20
20
00
00
ENDCHAR

STARTCHAR <unknown>
ENCODING 58
SWIDTH 42 0
DWIDTH 4 0
BBX 4 7 0 -2
BITMAP
00
00
40
00
40
00
00
ENDCHAR

STARTCHAR <unknown>
ENCODING 59
SWIDTH 42 0
DWIDTH 4 0
BBX 4 7 0 -2
BITMAP
00
00
40
00
40
80
00
ENDCHAR

STARTCHAR <unknown>
ENCODING 60
SWIDTH 42 0
DWIDTH 4 0
BBX 4 7 0 -2
BITMAP
20
40
80
40
20
00
00
ENDCHAR

STARTCHAR <unknown>
ENCODING 61
SWIDTH 42 0
DWIDTH 4 0
BBX 4 7 0 -2
BITMAP
00
00
E0
00
E0
00
00
ENDCHAR

STARTCHAR <unknown>
ENCODING 62
SWIDTH 42 0
DWIDTH 4 0
BBX 4 7 0 -2
BITMAP
80
40
20
40
80
00
00
ENDCHAR

STARTCHAR <unknown>
ENCODING 63
SWIDTH 42 0
DWIDTH 4 0
BBX 4 7 0 -2
BITMAP
C0
20
40
00
40
00
00
ENDCHAR

STARTCHAR <unknown>
ENCODING 64
SWIDTH 42 0
DWIDTH 4 0
BBX 4 7 0 -2
BITMAP
00
E0
A0
80
E0
00
00
ENDCHAR

STARTCHAR <unknown>
ENCODING 65
SWIDTH 42 0
DWIDTH 4 0
BBX 4 7 0 -2
BITMAP
40
A0
A0
E0
A0
00
00
ENDCHAR

STARTCHAR <unknown>
ENCODING 66
SWIDTH 42 0
DWIDTH 4 0
BBX 4 7 0 -2
BITMAP
C0
A0
C0
A0
C0
00
00
ENDCHAR

STARTCHAR <unknown>
ENCODING 67
SWIDTH 42 0
DWIDTH 4 0
BBX 4 7 0 -2
BITMAP
E0
80
80
80
E0
00
00
ENDCHAR

STARTCHAR <unknown>
ENCODING 68
SWIDTH 42 0
DWIDTH 4 0
BBX 4 7 0 -2
BITMAP
C0
A0
A0
A0
C0
00
00
ENDCHAR

STARTCHAR <unknown>
ENCODING 69
SWIDTH 42 0
DWIDTH 4 0
BBX 4 7 0 -2
BITMAP
E0
80
E0
80
E0
00
00
ENDCHAR

STARTCHAR <unknown>
ENCODING 70
SWIDTH 42 0
DWIDTH 4 0
BBX 4 7 0 -2
BITMAP
E0
80
C0
80
80
00
00
ENDCHAR

STARTCHAR <unknown>
ENCODING 71
SWIDTH 42 0
DWIDTH 4 0
BBX 4 7 0 -2
BITMAP
E0
80
A0
A0
E0
00
00
ENDCHAR

STARTCHAR <unknown>
ENCODING 72
SWIDTH 42 0
DWIDTH 4 0
BBX 4 7 0 -2
BITMAP
A0
A0
E0
A0
A0
00
00
ENDCHAR

STARTCHAR <unknown>
ENCODING 73
SWIDTH 42 0
DWIDTH 4 0
BBX 4 7 0 -2
BITMAP
E0
40
40
40
E0
00
00
ENDCHAR

STARTCHAR <unknown>
ENCODING 74
SWIDTH 42 0
DWIDTH 4 0
BBX 4 7 0 -2
BITMAP
20
20
20
A0
40
00
00
ENDCHAR

STARTCHAR <unknown>
ENCODING 75
SWIDTH 42 0
DWIDTH 4 0
BBX 4 7 0 -2
BITMAP
A0
C0
80
C0
A0
00
00
ENDCHAR

STARTCHAR <unknown>
ENCODING 76
SWIDTH 42 0
DWIDTH 4 0
BBX 4 7 0 -2
BITMAP
80
80
80
80
E0
00
00
ENDCHAR

STARTCHAR <unknown>
ENCODING 77
SWIDTH 42 0
DWIDTH 4 0
BBX 4 7 0 -2
BITMAP
A0
E0
A0
A0
A0
00
00
ENDCHAR

STARTCHAR <unknown>
ENCODING 78
SWIDTH 42 0
DWIDTH 4 0
BBX 4 7 0 -2
BITMAP
A0
E0
E0
E0
A0
00
00
ENDCHAR

STARTCHAR <unknown>
ENCODING 79
SWIDTH 42 0
DWIDTH 4 0
BBX 4 7 0 -2
BITMAP
E0
A0
A0
A0
E0
00
00
ENDCHAR

STARTCHAR <unknown>
ENCODING 80
SWIDTH 42 0
DWIDTH 4 0
BBX 4 7 0 -2
BITMAP
E0
A0
E0
80
80
00
00
ENDCHAR

STARTCHAR <unknown>
ENCODING 81
SWIDTH 42 0
DWIDTH 4 0
BBX 4 7 0 -2
BITMAP
E0
A0
A0
A0
C0
20
00
ENDCHAR

STARTCHAR <unknown>
ENCODING 82
SWIDTH 42 0
DWIDTH 4 0
BBX 4 7 0 -2
BITMAP
C0
A0
C0
A0
A0
00
00
ENDCHAR

STARTCHAR <unknown>
ENCODING 83
SWIDTH 42 0
DWIDTH 4 0
BBX 4 7 0 -2
BITMAP
E0
80
E0
20
E0
00
00
ENDCHAR

STARTCHAR <unknown>
ENCODING 84
SWIDTH 42 0
DWIDTH 4 0
BBX 4 7 0 -2
BITMAP
E0
40
40
40
40
00
00
ENDCHAR

STARTCHAR <unknown>
ENCODING 85
SWIDTH 42 0
DWIDTH 4 0
BBX 4 7 0 -2
BITMAP
A0
A0
A0
A0
40
00
00
ENDCHAR

STARTCHAR <unknown>
ENCODING 86
SWIDTH 42 0
DWIDTH 4 0
BBX 4 7 0 -2
BITMAP
A0
A0
A0
40
40
00
00
ENDCHAR

STARTCHAR <unknown>
ENCODING 87
SWIDTH 42 0
DWIDTH 4 0
BBX 4 7 0 -2
BITMAP
A0
A0
E0
E0
A0
00
00
ENDCHAR

STARTCHAR <unknown>
ENCODING 88
SWIDTH 42 0
DWIDTH 4 0
BBX 4 7 0 -2
BITMAP
A0
E0
40
E0
A0
00
00
ENDCHAR

STARTCHAR <unknown>
ENCODING 89
SWIDTH 42 0
DWIDTH 4 0
BBX 4 7 0 -2
BITMAP
A0
A0
E0
20
E0
00
00
ENDCHAR

STARTCHAR <unknown>
ENCODING 90
SWIDTH 42 0
DWIDTH 4 0
BBX 4 7 0 -2
BITMAP
E0
20
40
80
E0
00
00
ENDCHAR

STARTCHAR <unknown>
ENCODING 91
SWIDTH 42 0
DWIDTH 4 0
BBX 4 7 0 -2
BITMAP
E0
80
80
80
E0
00
00
ENDCHAR

STARTCHAR <unknown>
ENCODING 92
SWIDTH 42 0
DWIDTH 4 0
BBX 4 7 0 -2
BITMAP
80
C0
40
60
20
00
00
ENDCHAR

STARTCHAR <unknown>
ENCODING 93
SWIDTH 42 0
DWIDTH 4 0
BBX 4 7 0 -2
BITMAP
E0
20
20
20
E0
00
00
ENDCHAR

STARTCHAR <unknown>
ENCODING 94
SWIDTH 42 0
DWIDTH 4 0
BBX 4 7 0 -2
BITMAP
40
A0
00
00
00
00
00
ENDCHAR

STARTCHAR <unknown>
ENCODING 95
SWIDTH 42 0
DWIDTH 4 0
BBX 4 7 0 -2
BITMAP
00
00
00
00
00
E0
00
ENDCHAR

STARTCHAR <unknown>
ENCODING 96
SWIDTH 42 0
DWIDTH 4 0
BBX 4 7 0 -2
BITMAP
80
40
00
00
00
00
00
ENDCHAR

STARTCHAR <unknown>
ENCODING 97
SWIDTH 42 0
DWIDTH 4 0
BBX 4 7 0 -2
BITMAP
00
E0
20
E0
E0
00
00
ENDCHAR

STARTCHAR <unknown>
ENCODING 98
SWIDTH 42 0
DWIDTH 4 0
BBX 4 7 0 -2
BITMAP
80
E0
A0
A0
E0
00
00
ENDCHAR

STARTCHAR <unknown>
ENCODING 99
SWIDTH 42 0
DWIDTH 4 0
BBX 4 7 0 -2
BITMAP
00
E0
80
80
E0
00
00
ENDCHAR

STARTCHAR <unknown>
ENCODING 100
SWIDTH 42 0
DWIDTH 4 0
BBX 4 7 0 -2
BITMAP
20
E0
A0
A0
E0
00
00
ENDCHAR

STARTCHAR <unknown>
ENCODING 101
SWIDTH 42 0
DWIDTH 4 0
BBX 4 7 0 -2
BITMAP
00
E0
E0
80
E0
00
00
ENDCHAR

STARTCHAR <unknown>
ENCODING 102
SWIDTH 42 0
DWIDTH 4 0
BBX 4 7 0 -2
BITMAP
60
40
E0
40
40
00
00
ENDCHAR

STARTCHAR <unknown>
ENCODING 103
SWIDTH 42 0
DWIDTH 4 0
BBX 4 7 0 -2
BITMAP
00
E0
A0
E0
20
E0
00
ENDCHAR

STARTCHAR <unknown>
ENCODING 104
SWIDTH 42 0
DWIDTH 4 0
BBX 4 7 0 -2
BITMAP
80
E0
A0
A0
A0
00
00
ENDCHAR

STARTCHAR <unknown>
ENCODING 105
SWIDTH 42 0
DWIDTH 4 0
BBX 4 7 0 -2
BITMAP
40
00
40
40
40
00
00
ENDCHAR

STARTCHAR <unknown>
ENCODING 106
SWIDTH 42 0
DWIDTH 4 0
BBX 4 7 0 -2
BITMAP
40
00
40
40
40
C0
00
ENDCHAR

STARTCHAR <unknown>
ENCODING 107
SWIDTH 42 0
DWIDTH 4 0
BBX 4 7 0 -2
BITMAP
80
A0
C0
A0
A0
00
00
ENDCHAR

STARTCHAR <unknown>
ENCODING 108
SWIDTH 42 0
DWIDTH 4 0
BBX 4 7 0 -2
BITMAP
40
40
40
40
40
00
00
ENDCHAR

STARTCHAR <unknown>
ENCODING 109
SWIDTH 42 0
DWIDTH 4 0
BBX 4 7 0 -2
BITMAP
00
E0
E0
A0
A0
00
00
ENDCHAR

STARTCHAR <unknown>
ENCODING 110
SWIDTH 42 0
DWIDTH 4 0
BBX 4 7 0 -2
BITMAP
00
A0
E0
A0
A0
00
00
ENDCHAR

STARTCHAR <unknown>
ENCODING 111
SWIDTH 42 0
DWIDTH 4 0
BBX 4 7 0 -2
BITMAP
00
E0
A0
A0
E0
00
00
ENDCHAR

STARTCHAR <unknown>
ENCODING 112
SWIDTH 42 0
DWIDTH 4 0
BBX 4 7 0 -2
BITMAP
00
E0
A0
A0
E0
80
80
ENDCHAR

STARTCHAR <unknown>
ENCODING 113
SWIDTH 42 0
DWIDTH 4 0
BBX 4 7 0 -2
BITMAP
00
E0
A0
A0
E0
20
20
ENDCHAR

STARTCHAR <unknown>
ENCODING 114
SWIDTH 42 0
DWIDTH 4 0
BBX 4 7 0 -2
BITMAP
00
A0
C0
80
80
00
00
ENDCHAR

STARTCHAR <unknown>
ENCODING 115
SWIDTH 42 0
DWIDTH 4 0
BBX 4 7 0 -2
BITMAP
00
60
40
40
C0
00
00
ENDCHAR

STARTCHAR <unknown>
ENCODING 116
SWIDTH 42 0
DWIDTH 4 0
BBX 4 7 0 -2
BITMAP
40
E0
40
40
40
00
00
ENDCHAR

STARTCHAR <unknown>
ENCODING 117
SWIDTH 42 0
DWIDTH 4 0
BBX 4 7 0 -2
BITMAP
00
A0
A0
A0
E0
00
00
ENDCHAR

STARTCHAR <unknown>
ENCODING 118
SWIDTH 42 0
DWIDTH 4 0
BBX 4 7 0 -2
BITMAP
00
A0
A0
A0
40
00
00
ENDCHAR

STARTCHAR <unknown>
ENCODING 119
SWIDTH 42 0
DWIDTH 4 0
BBX 4 7 0 -2
BITMAP
00
A0
E0
E0
A0
00
00
ENDCHAR

STARTCHAR <unknown>
ENCODING 120
SWIDTH 42 0
DWIDTH 4 0
BBX 4 7 0 -2
BITMAP
00
A0
40
40
A0
00
00
ENDCHAR

STARTCHAR <unknown>
ENCODING 121
SWIDTH 42 0
DWIDTH 4 0
BBX 4 7 0 -2
BITMAP
00
A0
A0
E0
20
E0
00
ENDCHAR

STARTCHAR <unknown>
ENCODING 122
SWIDTH 42 0
DWIDTH 4 0
BBX 4 7 0 -2
BITMAP
00
E0
60
C0
E0
00
00
ENDCHAR

STARTCHAR <unknown>
ENCODING 123
SWIDTH 42 0
DWIDTH 4 0
BBX 4 7 0 -2
BITMAP
60
40
C0
40
60
00
00
ENDCHAR

STARTCHAR <unknown>
ENCODING 124
SWIDTH 42 0
DWIDTH 4 0
BBX 4 7 0 -2
BITMAP
40
40
40
40
40
00
00
ENDCHAR

STARTCHAR <unknown>
ENCODING 125
SWIDTH 42 0
DWIDTH 4 0
BBX 4 7 0 -2
BITMAP
C0
40
60
40
C0
00
00
ENDCHAR

STARTCHAR <unknown>
ENCODING 126
SWIDTH 42 0
DWIDTH 4 0
BBX 4 7 0 -2
BITMAP
00
60
C0
00
00
00
00
ENDCHAR
ENDFONT
